<?xml version="1.0" encoding="utf-8"?>
<!-- Generator: Adobe Illustrator 24.2.1, SVG Export Plug-In . SVG Version: 6.00 Build 0)  -->
<!DOCTYPE svg PUBLIC "-//W3C//DTD SVG 1.1//EN" "http://www.w3.org/Graphics/SVG/1.1/DTD/svg11.dtd" [
	<!ENTITY ns_extend "http://ns.adobe.com/Extensibility/1.0/">
	<!ENTITY ns_ai "http://ns.adobe.com/AdobeIllustrator/10.0/">
	<!ENTITY ns_graphs "http://ns.adobe.com/Graphs/1.0/">
	<!ENTITY ns_vars "http://ns.adobe.com/Variables/1.0/">
	<!ENTITY ns_imrep "http://ns.adobe.com/ImageReplacement/1.0/">
	<!ENTITY ns_sfw "http://ns.adobe.com/SaveForWeb/1.0/">
	<!ENTITY ns_custom "http://ns.adobe.com/GenericCustomNamespace/1.0/">
	<!ENTITY ns_adobe_xpath "http://ns.adobe.com/XPath/1.0/">
]>
<svg version="1.1" id="Layer_1" xmlns:x="&ns_extend;" xmlns:i="&ns_ai;" xmlns:graph="&ns_graphs;"
	 xmlns="http://www.w3.org/2000/svg" xmlns:xlink="http://www.w3.org/1999/xlink" x="0px" y="0px" width="1295px" height="385px"
	 viewBox="0 0 1295 385" style="enable-background:new 0 0 1295 385;" xml:space="preserve">
<style type="text/css">
	.st0{fill:#757576;}
</style>
<metadata>
	<sfw  xmlns="&ns_sfw;">
		<slices></slices>
		<sliceSourceBounds  bottomLeftOrigin="true" height="365.7" width="1260.9" x="17.1" y="-375.3"></sliceSourceBounds>
	</sfw>
</metadata>
<g>
	<path class="st0" d="M647.3,375.3c-193.4,0-386.9,0-580.3,0c-5.5,0-10.8-0.2-16.1-1.8c-18.1-5.7-29-17.8-33-36.3
		c-0.6-2.7-0.8-5.4-0.8-8.1c0-1.1,0-2.2,0-3.4c0-88.9,0-177.7,0-266.6c0-5.6,0.2-11.2,2-16.6c6.1-18.1,18.6-28.9,37.3-32.5
		c2.3-0.5,4.8-0.4,7.2-0.4c1.9-0.1,3.8,0,5.8,0c385.5,0,770.9,0,1156.4,0c3,0,6.1,0,9.1,0.2c17.3,0.7,36.3,13.1,41.8,35
		c0.8,3.1,1.2,6.3,1.2,9.5c0,1.9,0.1,3.8,0.1,5.8c0,88.4,0,176.8,0,265.1c0,4.8,0.1,9.6-1.2,14.3c-5.2,19-17.3,30.7-36.7,34.9
		c-3.3,0.7-6.6,0.8-10,0.8c-44.3,0-88.6,0-132.9,0C947.3,375.3,797.3,375.3,647.3,375.3z M280.9,233.5c1.2,0,2.1-0.8,3.1-1.3
		c13.7-7.8,27.5-15.6,41.2-23.4c1.4-0.8,2.8-1.6,4.1-2.5c2.2-1.6,4.1-3.5,5.5-5.9c2.1-3.6,2.2-7.2,0.4-11c-0.8-1.6-1.9-3-3.1-4.2
		c-1.9-1.9-4.2-3.4-6.6-4.7c-9-5.1-18-10.3-27.1-15.4c-5.7-3.2-11.4-6.4-17.1-9.5c-1-1.3-2.6-1.8-4-2.6
		c-29.3-16.7-58.5-33.3-87.8-49.9c-14-8-28-15.9-42.1-23.9c-2.4-1.3-4.7-2.8-7.3-3.5c-5.3-1.4-10.4-1.6-14.4,3.1
		c-1.7,1.6-2.5,3.6-3.2,5.8c-1,3.1-0.9,6.3-0.9,9.5c0,66.6,0,133.3,0,199.9c0,1.9,0,3.8,0.1,5.8c0.1,2.7,0.9,5.4,2.1,7.8
		c0.6,1.1,1.1,2.3,2.6,2.7c1.1,2.5,3.4,3.3,5.8,3.7c2.7,0.4,5.4,0.4,8-0.6c2.1-0.8,4.1-1.7,6.1-2.8c43.7-24.8,87.5-49.6,131.2-74.5
		C278.7,235.2,280,234.6,280.9,233.5z M480.3,176.5c-4.9-5.4-10.4-9.3-16.8-12.1c-10.9-4.8-22.2-6.6-34.1-5
		c-16.8,2.2-30.6,9.8-40.8,23.3c-10.5,14-13.8,30-10.9,47.1c3.1,18.3,12.7,32.2,28.7,41.5c12.3,7.1,25.6,9.4,39.7,7.6
		c9-1.2,17.4-4,24.9-9.1c8.4-5.7,15.1-12.9,18.8-22.4c3.6-9.2,4.9-18.8,4.1-28.7c-0.1-1.4-0.2-2.9-1.2-4.4c-1.4,0-3,0-4.6,0
		c-14.4,0-28.8,0-43.2,0c-2.5,0-5.1-0.7-7.5,0.5c-0.6,2.3-0.2,4.7-0.3,7.1c-0.1,2.4,0,4.8,0,7.2c0,0.9,0.4,1.5,1.4,1.5
		c1.3,0,2.6,0,3.8,0c10.1,0,20.1,0,30.2,0c1,0,2.2-0.4,3.2,0.8c-0.1,1-0.1,2.1-0.4,3.2c-3.6,14.5-13.4,22.8-27.4,26.4
		c-6.2,1.6-12.6,1.6-19,0.3c-13-2.7-22.8-9.6-29-21.3c-5-9.4-5.9-19.4-4-29.8c2.1-11.8,8.3-21,18.4-27.4c5.2-3.3,10.8-5.4,16.9-6.1
		c13.1-1.7,24.7,1.4,34.4,10.6c0.6,0.6,1.1,1.5,2.5,1.4C472.1,184.7,476.2,180.7,480.3,176.5z M751.8,198c-4.9-0.2-10-0.1-15.1-0.1
		c-1,0-1.3,0.7-1.3,1.6c0,2.2,0,4.5,0,6.7c0,0.5-0.2,1-0.7,1.1c-0.4,0-0.9-0.3-1.2-0.5c-0.9-0.9-1.7-1.9-2.6-2.8
		c-6.6-6.4-14.6-9.1-23.6-8.6c-12.1,0.7-21.6,6.4-28.4,16.4c-8.5,12.7-9.7,26.4-4.9,40.7c4.1,11.9,12,20.3,24,24.2
		c13.3,4.3,25.2,1.7,34.8-8.9c0.3-0.4,0.6-0.8,1-1c0.2-0.2,0.6-0.2,0.8-0.1c0.2,0.1,0.5,0.5,0.5,0.7c0.2,3.7,0.1,7.3-0.4,11
		c-1.6,11.3-8.3,18-19.5,19.7c-9.9,1.5-19.2-3.3-23.3-11.4c-0.4-0.8-0.4-2-1.9-2.2c-2.5,1-5.2,2-7.8,3.2c-2.7,1.2-5.8,1.8-8.2,3.8
		c3.6,8.6,9.6,14.8,17.8,18.7c10.6,5,21.6,5.4,32.7,2.4c12.9-3.5,21.1-11.9,25.4-24.4c1.9-5.5,2.3-11.2,2.3-17c0-23,0-46,0-69
		C752.4,200.8,752.7,199.4,751.8,198z M904.2,218.5c0,17.6,0,35.1,0,52.7c0,1.3,0,2.6,0,3.8c0,1.2,0.6,1.7,1.8,1.7
		c4.8,0,9.6,0,14.4,0c1.6,0,1.8-0.2,1.8-2.1c0-1.1,0-2.2,0-3.4c0-11.2,0-22.4,0-33.5c0-1.3,0-2.6,0-3.8c0-1.2,0.7-1.7,1.8-1.7
		c1,0,1.9,0,2.9,0c5.3,0,10.5,0,15.8,0c4.3,0,8.6-0.5,12.8-1.6c16-4.5,25.9-17.7,26.2-32.7c0.2-10.9-3.5-20-11.7-27.2
		c-6.9-6-15-9.1-24.1-9.2c-12.9-0.2-25.9-0.1-38.8-0.1c-0.6,0-1.3-0.1-1.9,0.1c-0.4,0.1-0.9,0.3-0.9,0.9c0,1.4-0.1,2.9-0.1,4.3
		C904.2,184,904.2,201.2,904.2,218.5z M1031.6,220.1c0.8-0.9,1.2-1.3,1.6-1.8c5.2-6.1,11.9-8.4,19.6-7.8c5.1,0.4,9.6,2.4,13,6.3
		c3.2,3.6,4.6,7.8,3.5,12.9c-0.8-0.2-1.4-0.4-2-0.6c-7.1-2.8-14.5-3.8-22.1-3.3c-6.8,0.4-13.2,2.1-19,5.9c-4.7,3.1-8.1,7.2-9.7,12.6
		c-3.6,12,0.8,22.9,9.6,29.3c5.5,4,11.7,5.7,18.4,5.9c7.4,0.2,13.8-2.1,19.2-7.1c1.5-1.4,2.9-3,4.4-4.4c0.2-0.2,0.5-0.4,0.8-0.4
		c0.6,0,0.7,0.6,0.7,1c0,2.1,0.1,4.2,0,6.2c0,1.1,0.4,1.9,1.6,1.9c4.8,0,9.6,0,14.4,0c0.9,0,1.5-0.5,1.5-1.5c0-1,0-1.9,0-2.9
		c0-14.1,0-28.1,0-42.2c0-2.2-0.1-4.5-0.3-6.7c-1.4-12.8-7.9-21.7-20.3-25.8c-10.4-3.4-21-3.5-31.5,0.1c-7.1,2.4-13,6.7-17.5,13.1
		C1022.3,214,1026.8,216.9,1031.6,220.1z M852.9,250.6c-1.3,1.7-2.2,3-3.2,4.2c-3.2,3.7-6.8,6.7-11.7,7.9c-2.7,0.7-5.4,0.6-8.1,0.5
		c-5.8-0.2-10.8-2.5-15-6.5c-2.1-2-3.5-4.5-4.3-7.3c-0.5-1.9-0.1-2.6,1.8-3.1c4-1.1,8-2.1,12-3.2c14.1-3.8,28.3-7.6,42.4-11.4
		c2.2-0.6,2.5-1,2-2.9c-1.9-7.7-4.9-14.8-10.1-20.9c-5.3-6.3-11.9-10.4-20.1-12.1c-5.5-1.1-10.8-0.8-16.1,0.3
		c-19.9,4.1-31.3,20-32.1,37.7c-0.4,8.2,1.7,15.8,4.8,23.2c3.4,8,9,13.8,16.6,17.8c9,4.6,18.5,5.7,28.4,3.9c11.9-2.2,20.5-9,26.9-19
		c0.7-1.1,0.5-1.7-0.6-2.3C862,255.1,857.6,252.9,852.9,250.6z M667.7,236.5c0.1-2.6-0.3-6.1-1.1-9.5c-3.2-13.4-10.9-23.3-23.8-28.6
		c-7.2-2.9-14.8-3.7-22.5-2.6c-14.2,2.1-24.6,9.3-30.7,22.3c-5.8,12.4-5.9,25.1-0.5,37.6c4.9,11.4,13.5,18.7,25.5,22.1
		c6.7,1.9,13.5,2.2,20.4,0.9c10-1.9,18.2-6.7,24.3-14.8C665.1,256,667.7,247.1,667.7,236.5z M581.4,236.5c0.2-2.8-0.2-6.6-1.2-10.4
		c-3.4-13-10.9-22.6-23.5-27.8c-7.2-2.9-14.7-3.8-22.5-2.7c-15,2.1-25.6,10.1-31.6,23.9c-3.6,8.3-4.4,17-2.8,25.8
		c2.6,14.3,10.3,25,23.9,30.7c7.9,3.4,16.3,4.1,24.9,2.5c10.5-2,19-7.1,25.2-15.9C579.1,255.2,581.5,246.8,581.4,236.5z
		 M1171.5,197.9c-5.1,0-10.1,0-15,0c-4.9,0-3.8-0.4-5.4,3.6c-6.1,14.9-12.1,29.8-18.1,44.8c-0.5,1.2-1,2.3-1.6,3.4
		c-0.1,0.1-0.7,0.2-0.8,0.1c-0.4-0.7-0.9-1.3-1.2-2.1c-3.3-7.9-6.6-15.9-9.9-23.8c-3.3-7.9-6.6-15.9-9.9-23.8
		c-0.6-1.5-1.4-2.2-3.2-2.2c-4.8,0.1-9.6,0-14.4,0.1c-0.9,0-1.9-0.4-2.6,0.5c-0.1,1.7,0.9,3.1,1.6,4.5c9.6,21.7,19.1,43.5,28.8,65.1
		c1.3,3,1.5,5.4,0.1,8.5c-4.9,10.2-9.4,20.6-14.1,30.9c-0.6,1.3-1.4,2.5-1.4,3.9c0.7,0.8,1.6,0.5,2.3,0.5c3.8,0,7.7,0,11.5,0
		c5,0,4.2,0.5,6.2-4.1c15.3-35.1,30.5-70.1,45.8-105.2C1170.7,201.1,1171.7,199.9,1171.5,197.9z M1008,219c0-17.4,0-34.8,0-52.3
		c0-1.3,0-2.6,0-3.8c0-1-0.6-1.4-1.5-1.4c-5,0-9.9,0-14.9,0c-0.9,0-1.4,0.6-1.4,1.6c0,1.1,0,2.2,0,3.4c0,35.2,0,70.3,0,105.5
		c0,1.1,0,2.2,0,3.4c0,1,0.7,1.4,1.5,1.5c5,0,9.9,0,14.9,0c0.9,0,1.4-0.6,1.4-1.6c0-1.3,0-2.6,0-3.8C1008,253.8,1008,236.4,1008,219
		z M782.8,219c0-17.4,0-34.8,0-52.2c0-1.3,0-2.6,0-3.8c0-0.9-0.5-1.5-1.4-1.5c-4,0-8,0-12,0c-4.4,0-4.1-0.4-4.1,4.1c0,1,0,1.9,0,2.9
		c0,31.1,0,62.3,0,93.4c0,4.9-0.7,9.8,0.5,14.7c5.1,0.5,10.2,0.1,15.3,0.2c0.2,0,0.3,0,0.5,0c0.7-0.1,1.2-0.4,1.2-1.2
		c0-1.3,0.1-2.6,0.1-3.8C782.8,254.1,782.8,236.5,782.8,219z M428.9,81.5c-10-9-20.9-10.7-32.6-6.7c-12.1,4.1-19.5,15.6-19.6,28.9
		c-0.1,14.7,10.6,26.8,23.3,29.6c3.5,0.8,7,0.8,10.5,0.5c9-0.6,16.1-4.8,21.1-12.2c3.7-5.5,4.6-11.8,4-18.3
		c-0.1-1.1-0.5-1.8-1.8-1.8c-0.6,0-1.3,0-1.9,0c-7,0-14.1,0-21.1,0c-3.4,0-3.7-0.4-3.7,3.7c0,3.3,0,3.3,3.1,3.3c2.7,0,5.4,0,8.1,0
		c2.7,0,5.4,0,8.1,0c1.3,0,1.8,0.6,1.6,1.7c-1.1,6.4-4.3,11.4-10.2,14.2c-8,3.9-16.1,3.7-23.7-1.3c-8.7-5.7-12-15.4-9.3-26.2
		c4.4-17.7,24.8-21.5,36.2-12.1c0.7,0.6,1.2,1.5,1.8,1.5C425.1,84.7,426.8,83.3,428.9,81.5z M736.3,118.9c-1.6-0.8-2-2.1-2.7-3.1
		c-7.9-12.6-15.8-25.1-23.6-37.7c-0.6-0.9-1.2-1.9-1.8-2.8c-0.4-0.5-0.8-1-1.5-1c-2.4,0-4.8,0-7.2,0.1c-0.8,0-1,0.7-1,1.4
		c0,1.3,0,2.6,0,3.8c0,16,0,31.9,0,47.9c0,6.2-0.8,5.3,5.3,5.3c2,0,2.1-0.1,2.1-2.3c0-13.3-0.1-26.5-0.1-39.8c0-1.5,0.1-3,0.1-4.9
		c1.8,1,2.2,2.4,2.9,3.6c8.1,12.8,16.1,25.7,24.1,38.6c3.2,5.1,3.2,5.1,9,4.8c1.4-0.1,1.7-0.2,1.7-1.7c0-6.9,0-13.7,0-20.6
		c0-11.3,0-22.7,0-34c0-1.6-0.2-2.4-2.2-2.2c-1.6,0.1-3.2-0.3-5.1,0.5c0,7.2,0,14.5,0,21.9C736.3,103.8,736.3,111.2,736.3,118.9z
		 M659.2,133.9c15.7,0.6,30.2-12.4,30.3-30.3c0.1-16.9-13.3-30.7-30-30.7c-17.4,0-30.2,14.1-30.3,30.5
		C629.1,120.8,643.1,134.4,659.2,133.9z M445.2,103.5c0,8,0,16,0,23.9c0,1.1,0,2.2,0,3.4c0.1,1.6,0.3,1.8,2,1.9c0.6,0,1.3,0,1.9,0
		c8.8,0,17.6,0,26.4,0c4.4,0,3.9,0,3.9-3.8c0-3.1,0-3.1-3.2-3.1c-1.8,0-3.5,0-5.3,0c-5.3,0-10.5,0-15.8,0c-2.2,0-2.4-0.3-2.4-2.5
		c0-4.6,0-9.3,0-13.9c0-2.2,0.2-2.4,2.5-2.4c5.6,0,11.2,0,16.8,0c5.6,0,4.7,0.7,4.7-5.4c0-0.9-0.5-1.5-1.4-1.5c-4.2,0-8.3,0-12.5,0
		c-2.9,0-5.7,0-8.6,0c-0.9,0-1.5-0.6-1.5-1.5c0-5.3,0-10.5,0-15.8c0-0.9,0.6-1.5,1.5-1.5c1.3,0,2.6-0.1,3.8-0.1c6.4,0,12.8,0,19.2,0
		c2,0,2.2-0.2,2.2-2.2c0-1.1,0-2.2,0-3.4c0-0.7-0.4-1.2-1.1-1.3c-0.6-0.1-1.3-0.1-1.9-0.1c-9.4,0-18.8,0-28.3,0c-0.5,0-1,0-1.4,0
		c-0.9,0.1-1.4,0.6-1.4,1.5c0,1.1,0,2.2,0,3.4C445.2,87.2,445.2,95.3,445.2,103.5z M584,107.2c0,6.7,0,13.4,0,20.1
		c0.1,6.4-1,5.2,5.7,5.3c0.2,0,0.3,0,0.5-0.1c0.5-0.1,0.9-0.4,0.9-0.9c0.1-1.3,0.1-2.5,0.1-3.8c0-13.7,0-27.5,0-41.2
		c0-1.3,0-2.6,0.1-3.8c0.1-1.1,0.8-1.7,1.9-1.7c3.2,0,6.4,0,9.6,0c5.5,0,4.9,0.6,4.9-5.4c0-0.9-0.4-1.5-1.4-1.6c-0.8,0-1.6,0-2.4,0
		c-10.9,0-21.7,0-32.6,0c-0.8,0-1.6,0-2.4,0.1c-0.4,0.1-1.1,0.4-1.1,0.7c-0.2,1.9-0.7,4,0.2,5.6c0.8,1.3,2.6,0.5,4,0.6
		c1.6,0.1,3.2,0,4.8,0c1.1,0,2.2,0,3.4,0c3.8,0,3.8,0,3.8,4.1c0,0.6,0,1.3,0,1.9C584,93.8,584,100.5,584,107.2z M502.2,107.3
		c0,6.7,0,13.4,0,20.1c0.1,6.2-1,5.2,5.8,5.2c1,0,1.4-0.5,1.4-1.5c0-1.3,0-2.6,0-3.8c0-13.6,0-27.1,0-40.7c0-1.3,0-2.6,0-3.8
		c0-1.2,0.7-1.7,1.8-1.7c3.8,0,7.7,0,11.5,0c3.1,0,3.1,0,3.1-3.2c0-0.8,0-1.6,0-2.4c0-1-0.6-1.4-1.5-1.4c-1,0-1.9,0-2.9,0
		c-10.4,0-20.7,0-31.1,0c-5,0-4.5-0.4-4.5,4.7c0,0.2,0,0.3,0,0.5c0,1.1,0.5,1.8,1.7,1.8c2.9,0,5.7,0,8.6,0c1.4,0,2.9,0,4.3,0
		c1.2,0,1.7,0.7,1.8,1.8c0.1,1.1,0,2.2,0,3.3C502.2,93.3,502.2,100.3,502.2,107.3z M559.3,103.5
		C559.3,103.5,559.3,103.5,559.3,103.5c0-8,0-16,0-24c0-6.3,0.9-5.3-5.7-5.3c-0.2,0-0.4,0-0.5,0c-0.3,0.3-0.8,0.6-0.9,1
		c-0.1,1.3-0.1,2.5-0.1,3.8c0,16.3,0,32.6,0,48.9c0,5.6-0.8,4.8,5.3,4.8c1.7,0,1.9-0.3,1.9-1.9C559.3,121.7,559.3,112.6,559.3,103.5
		z"/>
	<path class="st0" d="M337.9,188.1c-0.9-1.8-2.1-3.4-3.7-5c-2.2-2.2-4.8-3.8-7.2-5.2c-3.5-2-7-4-10.4-5.9
		c-5.5-3.2-11.1-6.3-16.6-9.4c-4-2.2-8-4.5-12-6.7l-4.8-2.6c-1.1-1.2-2.4-1.8-3.5-2.4c-0.3-0.2-0.6-0.3-0.9-0.5
		c-25.8-14.7-51.6-29.3-77.4-44l-18.3-10.4C171.7,89.4,160.4,83,149,76.5l-0.8-0.5c-2.2-1.3-4.5-2.6-7.2-3.3
		c-5.3-1.4-12.1-2.2-17.4,4c-0.6,0.6-1.1,1.2-1.6,1.9l-0.4,0.5l0,0c-0.9,1.5-1.4,3-1.9,4.5c-1.1,3.3-1.1,6.4-1,9.5l0,1
		c0,66.6,0,133.3,0,199.9c0,2.1,0,4,0.1,5.9c0.1,3.1,1,6.2,2.4,9l0.1,0.1c0.5,1,1.4,2.6,3.1,3.5c1.9,3,5.1,3.9,7.4,4.3
		c1.2,0.2,2.4,0.3,3.6,0.3c2.1,0,4.1-0.3,6-1c2.3-0.8,4.4-1.8,6.5-3c20.3-11.5,40.5-23,60.8-34.5c23.5-13.3,47-26.7,70.4-40
		c0.2-0.1,0.5-0.3,0.7-0.4c0.9-0.5,1.9-1,2.8-1.8c1.1-0.3,1.9-0.8,2.6-1.2c0.2-0.1,0.3-0.2,0.5-0.3c13.7-7.8,27.5-15.6,41.2-23.4
		c1.4-0.8,2.9-1.7,4.3-2.7c2.7-2,4.8-4.2,6.4-6.8C340,197.4,340.2,192.7,337.9,188.1z M139.4,78.5c1.9,0.5,3.8,1.6,5.8,2.7l0.9,0.5
		c11.4,6.5,22.8,12.9,34.2,19.4l18.3,10.4c25.8,14.7,51.6,29.3,77.4,44c0.3,0.1,0.5,0.3,0.8,0.4l-4.1,4.1c-9.7,9.7-19.4,19.3-29,29
		c-0.5,0.5-0.9,1-1.4,1.5c0,0,0,0.1-0.1,0.1c0,0,0,0-0.1-0.1c-0.5-0.5-0.9-1-1.4-1.5c-36.4-36.4-72.8-72.8-109.2-109.2
		c-0.4-0.4-0.8-0.7-1.1-1.1C132.4,77.5,135.2,77.4,139.4,78.5z M126.3,305.9c-1-2-1.5-4.1-1.6-6.3c-0.1-1.8-0.1-3.6-0.1-5.6
		c0-66.6,0-133.3,0-199.9l0-1c0-2.7,0-5.2,0.7-7.6c0.3-0.8,0.5-1.6,0.8-2.3c0.3,0.3,0.6,0.6,0.9,0.9
		c36.4,36.4,72.8,72.8,109.2,109.2c0.4,0.4,0.8,0.8,1.2,1.3c0,0,0,0,0.1,0.1c-0.6,0.6-1.1,1.2-1.7,1.7L127.6,304.6
		C127.2,305,126.8,305.4,126.3,305.9z M275.9,233.3c-23.5,13.3-47,26.7-70.4,40c-20.3,11.5-40.5,23-60.8,34.5
		c-1.8,1-3.7,1.9-5.6,2.6c-1.9,0.7-4,0.8-6.5,0.4c-1-0.2-1.7-0.3-2.2-0.6c0.5-0.5,0.9-0.9,1.4-1.4l108.3-108.3
		c0.6-0.6,1.2-1.2,1.8-1.9c0.1,0.1,0.2,0.2,0.3,0.3c10.2,10.2,20.4,20.4,30.6,30.6l3.5,3.5C276.2,233.1,276.1,233.2,275.9,233.3z
		 M332.2,198.8c-1.1,1.9-2.7,3.5-4.7,5c-1.2,0.9-2.5,1.6-3.8,2.4c-13.7,7.8-27.5,15.6-41.2,23.4c-0.2,0.1-0.5,0.3-0.7,0.4
		c0,0-0.1,0-0.1,0.1l-4.7-4.7c-10.2-10.2-20.4-20.4-30.6-30.6c0,0,0,0,0,0c0,0,0.1-0.1,0.1-0.1c0.4-0.5,0.8-0.9,1.3-1.4
		c9.7-9.7,19.3-19.4,29-29l4.5-4.5l0.5-0.5l3.2,1.8c4,2.2,8,4.4,11.9,6.7c5.5,3.1,11.1,6.3,16.6,9.4c3.5,2,7,4,10.5,5.9
		c2.4,1.4,4.4,2.6,6,4.2c1.1,1.1,2,2.3,2.5,3.4C333.9,193.5,333.8,196.1,332.2,198.8z"/>
	<path class="st0" d="M689.2,236.7c0.2-3.6,0.6-7.5,2.3-11.3c4.2-9.4,13.3-14.5,22.5-13.8c10.4,0.8,18.5,8.2,20.6,18.4
		c1.3,6.4,1,12.7-1.7,18.7c-3.8,8.3-10.4,12.9-19.4,13.3c-9.2,0.4-16.2-3.7-21-11.6C690.1,246.3,689.3,241.7,689.2,236.7z"/>
	<path class="st0" d="M922.2,196.4c0-5.3,0-10.5,0-15.8c0-1.6,0.3-1.9,2-1.9c7.3,0,14.7-0.2,22,0.1c9.4,0.3,16.8,7.8,17.5,17.1
		c0.6,8.2-5.7,16.4-13.9,18.3c-1.7,0.4-3.5,0.7-5.2,0.7c-6.7,0.1-13.4,0.1-20.1,0c-1.9,0-2.3-0.4-2.3-2.2
		C922.1,207.3,922.2,201.9,922.2,196.4C922.2,196.4,922.2,196.4,922.2,196.4z"/>
	<path class="st0" d="M1052.7,239.2c5.4-0.1,10.4,1.3,15.1,3.6c1.9,0.9,2,1.2,1.8,3.4c-0.2,2.3-0.9,4.4-2,6.3
		c-4,7.5-10.4,11.5-18.8,12.1c-4.3,0.3-8.5-0.9-11.8-4.1c-4.9-4.7-5-11.3-0.2-16.1c3.4-3.5,7.8-4.7,12.5-5.2
		C1050.5,239.1,1051.6,239.2,1052.7,239.2z"/>
	<path class="st0" d="M808,233.3c-1.2-10.9,6.8-19.3,13.9-21.4c5.7-1.7,11.2-2.1,16.8,0.4c4.2,1.8,7.1,4.8,9.1,8.8
		c0.2,0.4,0.1,0.9,0.2,1.5c-0.9,0.3-1.8,0.6-2.7,0.9C833,226.6,820.7,229.9,808,233.3z"/>
	<path class="st0" d="M603.1,237c-0.1-3.8,0.5-7.8,2.3-11.4c4.3-8.9,11.5-13.8,21.2-13.8c11.4,0,20,7.6,22.6,18.5
		c1.4,5.7,1.1,11.4-0.9,17c-3.3,9.4-11.9,15.3-21.4,15.6c-7.8,0.2-18.4-4.2-22.4-16.2C603.4,243.6,603,240.4,603.1,237z"/>
	<path class="st0" d="M516.9,237.2c-0.2-3.7,0.5-7.4,2-11c3.5-8.4,11.7-14.7,21.8-14.3c10.2,0.4,17.4,5.7,21.2,15.2
		c2.6,6.6,2.6,13.4,0.2,20.1c-3.4,9.3-10.2,14.6-19.9,15.6c-8.5,0.9-15.6-2.7-20.7-9.7C518.1,248.5,516.7,243.1,516.9,237.2z"/>
	<path class="st0" d="M636.9,103.6c-0.2-6.5,1.8-12.2,6.3-17c10.1-10.7,30.7-9.1,37,7.5c3.5,9.1,2.4,17.9-4.2,25.5
		c-5.9,6.8-15.3,9.3-24.5,5.9c-8.9-3.3-13.6-10.2-14.5-19.5C636.8,105.2,636.9,104.4,636.9,103.6z"/>
</g>
</svg>
